HIERARCHY
ROOT Hips
{
	OFFSET -14.64140 90.27770 -84.91600
	CHANNELS 6 Xposition Yposition Zposition Zrotation Xrotation Yrotation
	JOINT Spine
	{
		OFFSET 0.00000 13.20850 -1.60436
		CHANNELS 3 Zrotation Xrotation Yrotation
		JOINT Spine1
		{
			OFFSET 0.00000 8.61716 0.00000
			CHANNELS 3 Zrotation Xrotation Yrotation
			JOINT Spine2
			{
				OFFSET 0.00000 8.61717 0.00000
				CHANNELS 3 Zrotation Xrotation Yrotation
				JOINT Spine3
				{
					OFFSET 0.00000 8.61717 0.00000
					CHANNELS 3 Zrotation Xrotation Yrotation
					JOINT Neck
					{
						OFFSET 0.00000 11.07920 1.10792
						CHANNELS 3 Zrotation Xrotation Yrotation
						JOINT Neck1
						{
							OFFSET 0.00000 7.08032 0.00000
							CHANNELS 3 Zrotation Xrotation Yrotation
							JOINT Head
							{
								OFFSET 0.00000 7.08031 0.00000
								CHANNELS 3 Zrotation Xrotation Yrotation
								End site
								{
									OFFSET 0.00000 0.00000 0.00000
								}
							}
						}
					}
					JOINT RightShoulder
					{
						OFFSET -0.01000 7.91373 5.19711
						CHANNELS 3 Zrotation Xrotation Yrotation
						JOINT RightArm
						{
							OFFSET -18.41580 0.00000 0.00000
							CHANNELS 3 Zrotation Xrotation Yrotation
							JOINT RightForeArm
							{
								OFFSET -29.11090 0.00000 0.00000
								CHANNELS 3 Zrotation Xrotation Yrotation
								JOINT RightHand
								{
									OFFSET -24.65040 0.00000 0.00000
									CHANNELS 3 Zrotation Xrotation Yrotation
									JOINT RightHandThumb1
									{
										OFFSET -5.35114 -0.85590 3.97906
										CHANNELS 3 Zrotation Xrotation Yrotation
										JOINT RightHandThumb2
										{
											OFFSET -4.52789 0.00000 0.00000
											CHANNELS 3 Zrotation Xrotation Yrotation
											JOINT RightHandThumb3
											{
												OFFSET -2.46976 0.00000 0.00000
												CHANNELS 3 Zrotation Xrotation Yrotation
												End site
												{
													OFFSET 0.00000 0.00000 0.00000
												}
											}
										}
									}
									JOINT RightHandIndex1
									{
										OFFSET -14.26970 0.00000 2.88139
										CHANNELS 3 Zrotation Xrotation Yrotation
										JOINT RightHandIndex2
										{
											OFFSET -5.48836 0.00000 0.00000
											CHANNELS 3 Zrotation Xrotation Yrotation
											JOINT RightHandIndex3
											{
												OFFSET -3.01859 0.00000 0.00000
												CHANNELS 3 Zrotation Xrotation Yrotation
												End site
												{
													OFFSET 0.00000 0.00000 0.00000
												}
											}
										}
									}
									JOINT RightHandMiddle1
									{
										OFFSET -14.26970 0.00000 -0.09147
										CHANNELS 3 Zrotation Xrotation Yrotation
										JOINT RightHandMiddle2
										{
											OFFSET -6.17441 0.00000 0.00000
											CHANNELS 3 Zrotation Xrotation Yrotation
											JOINT RightHandMiddle3
											{
												OFFSET -3.56743 0.00000 0.00000
												CHANNELS 3 Zrotation Xrotation Yrotation
												End site
												{
													OFFSET 0.00000 0.00000 0.00000
												}
											}
										}
									}
									JOINT RightHandRing1
									{
										OFFSET -12.69180 0.00000 -3.06433
										CHANNELS 3 Zrotation Xrotation Yrotation
										JOINT RightHandRing2
										{
											OFFSET -5.62556 0.00000 0.00000
											CHANNELS 3 Zrotation Xrotation Yrotation
											JOINT RightHandRing3
											{
												OFFSET -3.56744 0.00000 0.00000
												CHANNELS 3 Zrotation Xrotation Yrotation
												End site
												{
													OFFSET 0.00000 0.00000 0.00000
												}
											}
										}
									}
									JOINT RightHandPinky1
									{
										OFFSET -11.11390 0.00000 -6.03719
										CHANNELS 3 Zrotation Xrotation Yrotation
										JOINT RightHandPinky2
										{
											OFFSET -4.52789 0.00000 0.00000
											CHANNELS 3 Zrotation Xrotation Yrotation
											JOINT RightHandPinky3
											{
												OFFSET -2.46976 0.00000 0.00000
												CHANNELS 3 Zrotation Xrotation Yrotation
												End site
												{
													OFFSET 0.00000 0.00000 0.00000
												}
											}
										}
									}
								}
							}
						}
					}
					JOINT LeftShoulder
					{
						OFFSET 0.01000 7.91373 5.19711
						CHANNELS 3 Zrotation Xrotation Yrotation
						JOINT LeftArm
						{
							OFFSET 18.41580 0.00000 0.00000
							CHANNELS 3 Zrotation Xrotation Yrotation
							JOINT LeftForeArm
							{
								OFFSET 29.11090 0.00000 0.00000
								CHANNELS 3 Zrotation Xrotation Yrotation
								JOINT LeftHand
								{
									OFFSET 24.65040 0.00000 0.00000
									CHANNELS 3 Zrotation Xrotation Yrotation
									JOINT LeftHandThumb1
									{
										OFFSET 5.35114 -0.85590 3.97906
										CHANNELS 3 Zrotation Xrotation Yrotation
										JOINT LeftHandThumb2
										{
											OFFSET 4.52789 0.00000 0.00000
											CHANNELS 3 Zrotation Xrotation Yrotation
											JOINT LeftHandThumb3
											{
												OFFSET 2.46977 0.00000 0.00000
												CHANNELS 3 Zrotation Xrotation Yrotation
												End site
												{
													OFFSET 0.00000 0.00000 0.00000
												}
											}
										}
									}
									JOINT LeftHandIndex1
									{
										OFFSET 14.26970 0.00000 2.88139
										CHANNELS 3 Zrotation Xrotation Yrotation
										JOINT LeftHandIndex2
										{
											OFFSET 5.48836 0.00000 0.00000
											CHANNELS 3 Zrotation Xrotation Yrotation
											JOINT LeftHandIndex3
											{
												OFFSET 3.01859 0.00000 0.00000
												CHANNELS 3 Zrotation Xrotation Yrotation
												End site
												{
													OFFSET 0.00000 0.00000 0.00000
												}
											}
										}
									}
									JOINT LeftHandMiddle1
									{
										OFFSET 14.26970 0.00000 -0.09147
										CHANNELS 3 Zrotation Xrotation Yrotation
										JOINT LeftHandMiddle2
										{
											OFFSET 6.17440 0.00000 0.00000
											CHANNELS 3 Zrotation Xrotation Yrotation
											JOINT LeftHandMiddle3
											{
												OFFSET 3.56744 0.00000 0.00000
												CHANNELS 3 Zrotation Xrotation Yrotation
												End site
												{
													OFFSET 0.00000 0.00000 0.00000
												}
											}
										}
									}
									JOINT LeftHandRing1
									{
										OFFSET 12.69180 0.00000 -3.06433
										CHANNELS 3 Zrotation Xrotation Yrotation
										JOINT LeftHandRing2
										{
											OFFSET 5.62556 0.00000 0.00000
											CHANNELS 3 Zrotation Xrotation Yrotation
											JOINT LeftHandRing3
											{
												OFFSET 3.56744 0.00000 0.00000
												CHANNELS 3 Zrotation Xrotation Yrotation
												End site
												{
													OFFSET 0.00000 0.00000 0.00000
												}
											}
										}
									}
									JOINT LeftHandPinky1
									{
										OFFSET 11.11390 0.00000 -6.03719
										CHANNELS 3 Zrotation Xrotation Yrotation
										JOINT LeftHandPinky2
										{
											OFFSET 4.52789 0.00000 0.00000
											CHANNELS 3 Zrotation Xrotation Yrotation
											JOINT LeftHandPinky3
											{
												OFFSET 2.46976 0.00000 0.00000
												CHANNELS 3 Zrotation Xrotation Yrotation
												End site
												{
													OFFSET 0.00000 0.00000 0.00000
												}
											}
										}
									}
								}
							}
						}
					}
					JOINT pCube4
					{
						OFFSET 0.00000 10.91090 1.10792
						CHANNELS 3 Zrotation Xrotation Yrotation
						End site
						{
							OFFSET 0.00000 0.00000 0.00000
						}
					}
				}
			}
		}
	}
	JOINT RightUpLeg
	{
		OFFSET -9.98441 0.00000 0.00000
		CHANNELS 3 Zrotation Xrotation Yrotation
		JOINT RightLeg
		{
			OFFSET 0.00000 -42.11790 0.00000
			CHANNELS 3 Zrotation Xrotation Yrotation
			JOINT RightFoot
			{
				OFFSET 0.00000 -45.00020 -0.00001
				CHANNELS 3 Zrotation Xrotation Yrotation
				JOINT RightForeFoot
				{
					OFFSET 0.00000 -3.74820 0.00000
					CHANNELS 3 Zrotation Xrotation Yrotation
					JOINT RightToeBase
					{
						OFFSET 0.00000 0.06325 14.43120
						CHANNELS 3 Zrotation Xrotation Yrotation
						End site
						{
							OFFSET 0.00000 0.00000 0.00000
						}
					}
				}
			}
		}
	}
	JOINT LeftUpLeg
	{
		OFFSET 9.98441 0.00000 0.00000
		CHANNELS 3 Zrotation Xrotation Yrotation
		JOINT LeftLeg
		{
			OFFSET 0.00000 -42.11800 0.00000
			CHANNELS 3 Zrotation Xrotation Yrotation
			JOINT LeftFoot
			{
				OFFSET 0.00000 -45.00070 0.00000
				CHANNELS 3 Zrotation Xrotation Yrotation
				JOINT LeftForeFoot
				{
					OFFSET 0.00000 -3.74824 0.00000
					CHANNELS 3 Zrotation Xrotation Yrotation
					JOINT LeftToeBase
					{
						OFFSET 0.00000 0.06325 14.43110
						CHANNELS 3 Zrotation Xrotation Yrotation
						End site
						{
							OFFSET 0.00000 0.00000 0.00000
						}
					}
				}
			}
		}
	}
}
MOTION
Frames: 4
Frame Time: 0.050000
0.04726170115102618 0.01912351356344738 0.04497361797185293 0.023703230070946546 0.04392395482954948 -0.04227802687452381 5.79211827078659 2.060600673249438 -2.426028109788663 -0.7209930401226947 3.4837253884700745 0.31781571718714174 -0.5113189840962312 -1.541431349527596 0.3305040494427776 -0.7532434151938828 -0.5959904738379103 -0.28066417245020825 -0.3522309546508777 15.063866032838389 -0.2700692953489733 0.4253469167504347 0.8605258321426906 0.9881613219465132 0.44479944317219694 -14.969872942603725 0.0626714076117711 -12.876132597870507 4.1295422474827665 -18.181831855903074 81.07189985343996 -6.607650942713073 22.07847086847797 33.98664672908433 12.370036589784693 95.04642135796848 14.46394051707197 -0.6103945006359698 -6.308893902208617 4.5275444154957105 -0.09807607988142261 -1.6162717868346241 -0.027358672809448023 0.0046670803705142466 -56.18684596565402 0.015794311707337822 0.007932006793398266 -56.20481826050344 -38.756568488649705 0.027601153702499246 0.010765292879389952 0.037355291542302584 -0.03133786894628715 0.007825104075190617 0.0002701038882038593 0.02294335589258481 -0.018371834700215556 -36.68912892273893 -0.017582667235156398 -0.04894953536871881 0.01944472754867519 0.011650442552559322 0.04144107527451305 -0.005044184955528854 -0.01221248817719218 0.005658203824382186 -19.79096760836482 -0.011616942370639963 -0.03778842670747852 -0.002577674306884673 0.04114816404113585 -0.01673611830489033 -0.013769815225470963 0.045350678772583024 -0.001171321818390488 24.066925780847242 0.025198484349513387 -0.041359329023177675 28.875756058343455 0.020287724422976994 0.04168253424235205 28.840172513537034 -0.00916131434249272 0.013984963523703325 14.477310356983486 3.1633747105068597 15.186603334063298 -71.71695860508814 6.685185475833793 -29.949657723318317 -39.68159328142196 16.73394277217708 -92.25802131504115 -24.616375916888018 -7.817793001656768 4.953534896414336 -0.4254172606718521 0.09990623743046509 -8.130796419168409 -0.035043665120810155 -0.03772211898011368 44.55517666964286 0.012694578576983463 0.03704835802852084 44.6126596246185 12.439156185651864 0.006347527960830676 0.00913396265060158 -0.044025602811918835 -0.02814764589177913 -0.0024679083075508645 0.043606013124892394 0.012536361554935864 -0.038157952708973056 11.132820730210003 -0.012275518304403762 0.0066067672597424805 0.03387853843920286 0.03255606635549491 0.029944027450966512 -0.023834100706270518 -0.019775399434043047 -0.033417264951178124 4.75216243167172 0.023097235721660062 -0.01381694102417164 0.02111673522401607 0.0380432039745926 -0.0221863335097573 -0.020904471181106176 -0.01946090199427347 -0.02112901248767654 -5.575505430357095 0.012778416337483256 0.02923524492370856 -6.746865266002648 -0.0037428072665390186 0.015308169552969665 -6.696676071034176 0.022464439040486357 0.026525408150952754 0.03126534035980682 0.041633143907352496 -0.034806999558598915 8.010214085461502 3.487667987044971 -19.177064244003414 0.012843772599167486 10.403598332245023 0.052969689827583974 -5.639861889274191 -15.671274318553907 3.2169558186386826 -0.027359978536346703 -0.04902546437266859 0.01213922694608749 -0.004291562578583735 4.745401347896358 -0.032362587755557434 12.477324484541718 -8.208309057120097 6.900047236973117 -0.019153755003452334 46.39443140357679 0.0016915830158860388 -4.3461681229589795 -14.716847509997939 -3.802828623887931 -0.04796940519837167 -0.0025814472567554916 -0.0023454258011926725 -0.03443325396073652 -10.77216432782165 -0.019385451465736368 
0.011289744873515155 -0.03406322907783794 -0.02404004633481893 -0.01930515919334079 0.0036459941502259736 0.004731932334089477 5.785703076671846 1.9459740883142562 -2.4120041680966526 -0.6759670280098207 3.4817787959002082 0.3819465108674309 -0.4801254383068735 -1.4860485049074716 0.3259904926169379 -0.6961642153901221 -0.5785467879624616 -0.3011693013896591 -0.3608557810701905 15.087603797781577 -0.23268663116389038 0.4215473292364085 0.8394448170610272 1.0171198498159562 0.432548487739825 -14.965750401854603 0.030747576989421856 -12.93948020491806 4.173605779003499 -18.148526633298363 81.61008441251758 -5.241088267462556 22.50878134870667 35.59809028188568 12.292821481119944 95.5635910981418 15.10556211605663 -0.602806421023348 -6.974654328422792 4.525336767155752 -0.15605818946797048 -1.6377571747943689 -0.01836995326473507 0.04224581605969606 -56.242007583556635 0.024984183889345486 0.01151263959014262 -56.23475803218574 -38.720795637764766 -0.023808805576084835 -0.04219481664264028 -0.020364475222288715 0.034786152887472596 -0.0366091256525123 -0.016569340239134013 0.014990460667122738 -0.01928718017495938 -36.672493234488016 -0.009211163928539655 -0.007640596584726685 -0.03519860449943758 0.032136696378676465 -0.020021655914090403 -0.008491480229206594 -0.015181423756496192 -0.03503494706386235 -19.783769913344493 0.016826055196970308 0.028212809994144654 -0.0073927458035046665 0.02687355404742381 -0.03374110192334799 0.04301142018678579 -0.04991891382745035 -0.021366856384960657 24.036093618656484 -0.010728839622188742 0.0055061006513569925 28.85223355297912 -0.04192788021557203 0.007716022073691712 28.895141064510454 -0.021990807901172877 -0.011238579745830434 14.496850305254126 3.1657820400692755 15.099790251926674 -72.02065464159644 7.699844482030238 -30.11941695869636 -40.426574000054174 16.61024610538086 -92.07796180782402 -25.816981460294766 -8.862507292115627 6.051100499892525 -0.4484882583877787 0.06421142494909235 -8.114583480613884 0.00011507872172650919 0.018179399860771682 44.597727111368606 -0.017019433315604977 0.013896012752301639 44.550310324743954 12.475737411717274 -0.01769266177273107 -0.019241368921630666 0.044357612465012575 -0.02250690238143682 0.0008840924837128304 -0.0412153010861642 -0.012296788708503368 -0.02473242860832426 11.093045486884211 0.001916329636027156 0.002884811206807677 0.04760727307521788 -0.035008995817435246 0.02828641880280571 -0.04677391579327794 0.006216740943279418 0.04579417185839835 4.770936291098158 -0.035644852496166064 -0.024001142065662177 -0.016055497587383068 0.035372730161926984 -0.04240150056502219 0.009015406935291702 0.03629178636635347 -0.020989208825819505 -5.60760107283543 0.003556407571778606 0.026211447069337302 -6.7211252783207 0.0028283847980028784 -0.04663491093395606 -6.676154320968138 -0.025034552558224545 0.021519031863170907 0.013806862610346138 -0.013338077251391306 -0.02500493570188111 8.020187110320496 3.5098363024646604 -19.207318080061082 -0.022831341804029615 10.374124357456138 0.03394273425949711 -5.664959337058668 -15.686652181861627 3.176038596432622 0.025851433461911034 -0.02971809442233909 -0.030494968712451522 -0.04977948887689844 4.690588853124616 0.03317886621861315 12.470555366656434 -8.264234455124726 6.912536081023797 0.029291219882877872 46.36216786783529 0.047886176869380945 -4.335993123205822 -14.765582733203512 -3.8691005313362785 0.038672721993742935 0.04044175649743199 -0.02054579045790842 -0.017589044880994217 -10.712614683492532 -0.030962916236877122 
0.002475334419389371 0.0067298338381499186 0.027654592584232886 0.008361897833071612 -0.049587534199219824 -0.030619743378865923 5.920830087162791 1.9945800388798038 -2.4882866152739718 -0.6934066975005626 3.4259890331172556 0.38950421626500764 -0.4386985370577926 -1.55569068716084 0.3137518662301151 -0.6745395446629755 -0.5463268935981895 -0.31333191276383343 -0.4387500491282802 15.031264260598176 -0.22152905623007849 0.41910123127000964 0.7896782405151251 0.9162079081184472 0.44246686466430424 -15.02518825498231 0.02195140897339362 -12.805990976555487 4.143485364367198 -18.04949128623027 81.97679190756668 -3.069579050418989 22.407974151703097 36.66367637050421 12.087877240960648 95.72346251798407 15.736652383276365 -0.6060901218981648 -7.4898780515556584 4.506039005929535 -0.16984070633720555 -1.577019984402428 -0.008245438645301017 -0.02031439429366243 -56.23169030081273 0.0346197684401521 -0.04489557891269198 -56.26143880062945 -38.78798831481789 -0.006540571276850219 0.03682194927398754 -0.028817818269757975 -0.041892997595497736 -0.022441669256180595 -0.04289485208848711 -0.04002097400177176 -0.005543237707180835 -36.69082987493079 -0.030620587024216418 -0.03296576465783127 0.031058863104908963 -0.009000102604725882 -0.01873342016922043 -0.027170017566639552 0.009885797858368866 0.001602084810841634 -19.733393573280402 0.03275784761199354 -0.014638803174926792 -0.03672659349391397 0.03966253952811388 -0.00026515369619177064 -0.01819453251920997 0.0022816312291969775 0.023062617126272757 24.03144134708146 0.028716569952680335 -0.031547979443362004 28.86376030176435 -0.046480153123363975 0.04562200702693752 28.825372322390898 -0.014751452526226682 -0.04027483574915717 14.481927314309226 3.2109684630345674 14.996156712096736 -72.2018348774679 9.311879179188937 -30.321031681646176 -40.565077346595025 16.44560108440955 -91.60525847704008 -26.716729079788752 -9.8349980812017 7.023196586523439 -0.49787683589900084 0.04776819753261709 -8.16495737847847 0.03506500987814643 -0.030120000815698704 44.56512581413283 -0.023480402423251428 0.023831527848300928 44.558997214636435 12.491708245855765 0.04762960158430768 0.024879623084410038 -0.011725071942875911 -0.045464580291991276 0.02143976037066768 0.02737056550063871 -0.032625958055342574 -0.030474735202302965 11.14306218703913 0.025930439761256217 -0.04137596242317408 0.010350809054478738 -0.03755577072863486 0.034448692249342903 0.028003664309875678 -0.011508287234245825 -0.0480629262944072 4.812565364885956 -0.011601857149940135 0.036176055565371255 -0.0042432691797376345 -0.045697785350809705 0.039329976277348924 -0.015208732526803048 0.04620332881425571 0.03822297946845832 -5.595523104467592 0.010455039052655291 0.0007284406714200704 -6.7023532344115475 0.02674256837529467 -0.04397989956851679 -6.7179825834957585 0.005831903022137528 -0.04973645597790159 -0.007710123242833543 0.006441834105215665 0.00919950518631199 8.075322887100446 3.4831549549441916 -19.189331209396382 0.024611145496464617 10.352416226809298 -0.006375683903887656 -5.618194196251059 -15.640376628655728 3.224792214823709 -0.04548363639705857 -0.012836992098416678 0.029833502709216662 0.02309687900009673 4.710829351769322 -0.002199230829340231 12.486022353287812 -8.253211524666819 6.866073354085848 -0.015168179514450826 46.38798505506606 -0.021791790414984236 -4.353493272021106 -14.759685927765092 -3.8324335111541314 0.016796392578371684 -0.01863288779505421 -0.03899404400269486 0.0025677271664642396 -10.754875213486532 0.01778335790617918 
-0.013276746952009935 -0.022921691768277585 -0.030466328433575347 -0.005311294967763185 0.005344141769903326 -0.0038281634129307325 5.925309826947659 1.9878502024774822 -2.4356623594231426 -0.6553201610370347 3.481704734083033 0.3173244619361504 -0.44800140397631133 -1.4739019738663959 0.30337939481016785 -0.6681480617626838 -0.5553503788438345 -0.3161845047778473 -0.42351947651655136 14.910431655328537 -0.2535887761476524 0.4545388913186776 0.7657999519499661 0.8656703748698706 0.4080994543316647 -15.075481027093277 0.015572892515941308 -12.646014642784648 4.184792333044406 -17.883053527582312 82.30204015335961 -1.4554531613954005 22.154414781336826 37.48852837078889 11.8195976773584 95.78454853258033 16.319306113503462 -0.5850348007257506 -7.9680541427295895 4.531556443222581 -0.12610709044593146 -1.6305202493227404 -0.00723388903389682 0.014936606685961295 -56.26475948617203 0.008132139270361653 -0.04814081719423364 -56.20794109465539 -38.72701168004964 -0.007824852542083498 -0.0025480486569764986 -0.01663843294891759 0.035502317622876416 0.016579315686262645 -0.005011318858397621 0.037020131301924906 -0.015103285962195033 -36.68769464418537 0.017641663053657938 0.027658827785595533 -0.00891524563302466 -0.012513283266102376 -0.033511357220124764 0.031779299897324906 -0.022959863155462817 -0.039661961221222966 -19.708699802784057 -0.008541282010169826 0.005465007653106011 -0.03356387270134098 -0.03541294169605173 0.04417557551232912 0.04464189265480054 -0.040858720251673974 -0.006926565591160235 24.09717718002951 0.025061501050396704 0.04074059753332355 28.854825074812126 -0.03302880925419022 0.0037340440304560467 28.886088009268217 0.01660082978672528 0.027523260473642615 14.443434586169015 3.1434971807628287 14.845435560659212 -72.27559736195964 10.510738173448003 -30.637913484007395 -41.403346031346864 16.175474056256935 -91.51070306615168 -27.58159616652288 -10.424970739433766 7.713950539027099 -0.5223547148510247 0.11469719363413695 -8.159762159895083 0.018348269273723905 -0.0012285486450106433 44.599788625591174 -0.03557645820635345 0.01037535150217597 44.60296389110287 12.508384217974271 0.044368089171197014 0.04172054528121964 0.04993669695938823 0.008482943700337175 0.004228418780830893 -0.0026124624488886956 -0.016313941438476882 -0.00590921347529232 11.086829728112082 -0.038618772046167996 -0.04683289781356734 -0.0485220085449643 0.016478221477480442 -0.026634897413707975 -0.036705985454572924 0.03391443897053737 0.010128255348594316 4.775076057284451 0.02430805385745831 -0.019931778696630698 0.006551710567889305 0.009739129938411058 -0.036581925817933354 0.03924168676840209 0.03792653904308295 -0.03785091774391379 -5.6066551647325 0.005924684041305133 -0.022393983937489745 -6.6801364350685795 -0.017076680284625258 0.04965455501302227 -6.6876265732590205 -0.0145938749717659 -0.01359304277176443 0.03287710448388753 0.003360007293834123 -0.020503395103750533 8.073461582066221 3.4475164062403265 -19.21381842042861 0.008835827638220753 10.38958805850765 -0.014435083943207666 -5.590243786392826 -15.6433625934212 3.20569383635866 -0.011636302564574983 -0.00736540621783872 0.01922288275339908 0.031932517997418426 4.721108101291226 -0.008243049460542936 12.45277415679629 -8.233616507835396 6.88072130748443 -0.019154045882813064 46.33752116926239 0.0016707666449628919 -4.3505720791438 -14.795501886749125 -3.856472579420555 0.015969507632080014 -0.017710283719269134 -0.03804023832536309 0.018441340360551232 -10.747651327603183 0.009018478163741083 
